<mxfile host="app.diagrams.net" modified="2023-02-02T00:09:34.287Z" agent="5.0 (Windows)" etag="1oCBqOKBkh7Hg7SSWr4k" version="20.8.15" type="github">
  <diagram name="Page-1" id="k-a6IqjKt22_uS10msmN">
    <mxGraphModel dx="2100" dy="1060" grid="1" gridSize="10" guides="1" tooltips="1" connect="1" arrows="1" fold="1" page="1" pageScale="1" pageWidth="827" pageHeight="1169" math="0" shadow="0">
      <root>
        <mxCell id="0" />
        <mxCell id="1" parent="0" />
        <mxCell id="5G4IDF_U-Jctl3EP4ENw-1" value="Consulter les statistiques d&#39;application" style="html=1;overflow=block;blockSpacing=1;whiteSpace=wrap;ellipse;fontSize=13;spacing=3.8;strokeColor=#5e5e5e;strokeOpacity=100;rounded=1;absoluteArcSize=1;arcSize=9;strokeWidth=2.3;lucidId=.BitsejxpJ_f;" vertex="1" parent="1">
          <mxGeometry x="515" y="1545" width="120" height="90" as="geometry" />
        </mxCell>
        <mxCell id="5G4IDF_U-Jctl3EP4ENw-2" value="Gerer le profil" style="html=1;overflow=block;blockSpacing=1;whiteSpace=wrap;ellipse;fontSize=13;spacing=3.8;strokeColor=#5e5e5e;strokeOpacity=100;rounded=1;absoluteArcSize=1;arcSize=9;strokeWidth=2.3;lucidId=.BitsejxpJ_f;" vertex="1" parent="1">
          <mxGeometry x="535" y="1052.5" width="120" height="90" as="geometry" />
        </mxCell>
        <mxCell id="5G4IDF_U-Jctl3EP4ENw-3" style="edgeStyle=orthogonalEdgeStyle;rounded=0;orthogonalLoop=1;jettySize=auto;html=1;exitX=0.5;exitY=0;exitDx=0;exitDy=0;endArrow=none;endFill=0;" edge="1" parent="1" source="5G4IDF_U-Jctl3EP4ENw-4" target="5G4IDF_U-Jctl3EP4ENw-1">
          <mxGeometry relative="1" as="geometry" />
        </mxCell>
        <mxCell id="5G4IDF_U-Jctl3EP4ENw-4" value="&lt;div&gt;Rechercher un evenement selon Localisation / nom d&#39;evenement /categorie/ organizateur&lt;br&gt;&lt;/div&gt;&lt;div&gt;&lt;br&gt;&lt;/div&gt;" style="html=1;overflow=block;blockSpacing=1;whiteSpace=wrap;ellipse;fontSize=13;spacing=3.8;strokeColor=#5e5e5e;strokeOpacity=100;rounded=1;absoluteArcSize=1;arcSize=9;strokeWidth=2.3;lucidId=.BitsejxpJ_f;" vertex="1" parent="1">
          <mxGeometry x="365" y="1679" width="260" height="90" as="geometry" />
        </mxCell>
        <mxCell id="5G4IDF_U-Jctl3EP4ENw-5" style="edgeStyle=orthogonalEdgeStyle;rounded=0;orthogonalLoop=1;jettySize=auto;html=1;exitX=0;exitY=0;exitDx=0;exitDy=0;entryX=1;entryY=1;entryDx=0;entryDy=0;endArrow=none;endFill=0;" edge="1" parent="1" source="5G4IDF_U-Jctl3EP4ENw-6" target="5G4IDF_U-Jctl3EP4ENw-1">
          <mxGeometry relative="1" as="geometry" />
        </mxCell>
        <mxCell id="5G4IDF_U-Jctl3EP4ENw-6" value="Filterr les evenements selon Prix d&#39;evenement /date d&#39;evenement" style="html=1;overflow=block;blockSpacing=1;whiteSpace=wrap;ellipse;fontSize=13;spacing=3.8;strokeColor=#5e5e5e;strokeOpacity=100;rounded=1;absoluteArcSize=1;arcSize=9;strokeWidth=2.3;lucidId=.BitsejxpJ_f;" vertex="1" parent="1">
          <mxGeometry x="645" y="1679" width="250" height="90" as="geometry" />
        </mxCell>
        <mxCell id="5G4IDF_U-Jctl3EP4ENw-7" value="Code Qr" style="html=1;overflow=block;blockSpacing=1;whiteSpace=wrap;ellipse;fontSize=13;spacing=3.8;strokeColor=#5e5e5e;strokeOpacity=100;rounded=1;absoluteArcSize=1;arcSize=9;strokeWidth=2.3;lucidId=.BitsejxpJ_f;" vertex="1" parent="1">
          <mxGeometry x="445" y="1919" width="190" height="90" as="geometry" />
        </mxCell>
        <mxCell id="5G4IDF_U-Jctl3EP4ENw-8" value="Chat" style="html=1;overflow=block;blockSpacing=1;whiteSpace=wrap;ellipse;fontSize=13;spacing=3.8;strokeColor=#5e5e5e;strokeOpacity=100;rounded=1;absoluteArcSize=1;arcSize=9;strokeWidth=2.3;lucidId=.BitsejxpJ_f;" vertex="1" parent="1">
          <mxGeometry x="465" y="2029" width="210" height="90" as="geometry" />
        </mxCell>
        <mxCell id="5G4IDF_U-Jctl3EP4ENw-9" value="Gerer artists" style="html=1;overflow=block;blockSpacing=1;whiteSpace=wrap;ellipse;fontSize=13;spacing=3.8;strokeColor=#5e5e5e;strokeOpacity=100;rounded=1;absoluteArcSize=1;arcSize=9;strokeWidth=2.3;lucidId=.BitsejxpJ_f;" vertex="1" parent="1">
          <mxGeometry x="475" y="2139" width="200" height="90" as="geometry" />
        </mxCell>
        <mxCell id="5G4IDF_U-Jctl3EP4ENw-10" value="Verifier Organizateur" style="html=1;overflow=block;blockSpacing=1;whiteSpace=wrap;ellipse;fontSize=13;spacing=3.8;strokeColor=#5e5e5e;strokeOpacity=100;rounded=1;absoluteArcSize=1;arcSize=9;strokeWidth=2.3;lucidId=.BitsejxpJ_f;" vertex="1" parent="1">
          <mxGeometry x="480" y="2239" width="195" height="90" as="geometry" />
        </mxCell>
        <mxCell id="5G4IDF_U-Jctl3EP4ENw-11" value="Gestion des comptes utilisateurs" style="html=1;overflow=block;blockSpacing=1;whiteSpace=wrap;ellipse;fontSize=13;spacing=3.8;strokeColor=#5e5e5e;strokeOpacity=100;rounded=1;absoluteArcSize=1;arcSize=9;strokeWidth=2.3;lucidId=.BitsejxpJ_f;" vertex="1" parent="1">
          <mxGeometry x="425" y="1809" width="240" height="90" as="geometry" />
        </mxCell>
        <mxCell id="5G4IDF_U-Jctl3EP4ENw-12" value="Gestion d&#39;eveneenmts" style="html=1;overflow=block;blockSpacing=1;whiteSpace=wrap;ellipse;fontSize=13;spacing=3.8;strokeColor=#5e5e5e;strokeOpacity=100;rounded=1;absoluteArcSize=1;arcSize=9;strokeWidth=2.3;lucidId=.BitsejxpJ_f;" vertex="1" parent="1">
          <mxGeometry x="480" y="2349" width="195" height="90" as="geometry" />
        </mxCell>
        <mxCell id="5G4IDF_U-Jctl3EP4ENw-101" style="edgeStyle=orthogonalEdgeStyle;rounded=0;orthogonalLoop=1;jettySize=auto;html=1;exitX=0.5;exitY=0;exitDx=0;exitDy=0;entryX=0.5;entryY=1;entryDx=0;entryDy=0;" edge="1" parent="1" source="5G4IDF_U-Jctl3EP4ENw-13" target="5G4IDF_U-Jctl3EP4ENw-12">
          <mxGeometry relative="1" as="geometry" />
        </mxCell>
        <mxCell id="5G4IDF_U-Jctl3EP4ENw-13" value="Reservation ticket" style="html=1;overflow=block;blockSpacing=1;whiteSpace=wrap;ellipse;fontSize=13;spacing=3.8;strokeColor=#5e5e5e;strokeOpacity=100;rounded=1;absoluteArcSize=1;arcSize=9;strokeWidth=2.3;lucidId=.BitsejxpJ_f;" vertex="1" parent="1">
          <mxGeometry x="480" y="2459" width="195" height="90" as="geometry" />
        </mxCell>
        <mxCell id="5G4IDF_U-Jctl3EP4ENw-102" style="edgeStyle=orthogonalEdgeStyle;rounded=0;orthogonalLoop=1;jettySize=auto;html=1;exitX=0;exitY=0;exitDx=0;exitDy=0;entryX=1;entryY=0.5;entryDx=0;entryDy=0;" edge="1" parent="1" source="5G4IDF_U-Jctl3EP4ENw-14" target="5G4IDF_U-Jctl3EP4ENw-12">
          <mxGeometry relative="1" as="geometry" />
        </mxCell>
        <mxCell id="5G4IDF_U-Jctl3EP4ENw-14" value="Reservation ticket" style="html=1;overflow=block;blockSpacing=1;whiteSpace=wrap;ellipse;fontSize=13;spacing=3.8;strokeColor=#5e5e5e;strokeOpacity=100;rounded=1;absoluteArcSize=1;arcSize=9;strokeWidth=2.3;lucidId=.BitsejxpJ_f;" vertex="1" parent="1">
          <mxGeometry x="715" y="2459" width="195" height="90" as="geometry" />
        </mxCell>
        <mxCell id="5G4IDF_U-Jctl3EP4ENw-100" style="edgeStyle=orthogonalEdgeStyle;rounded=0;orthogonalLoop=1;jettySize=auto;html=1;exitX=1;exitY=0;exitDx=0;exitDy=0;entryX=0;entryY=0.5;entryDx=0;entryDy=0;" edge="1" parent="1" source="5G4IDF_U-Jctl3EP4ENw-15" target="5G4IDF_U-Jctl3EP4ENw-12">
          <mxGeometry relative="1" as="geometry" />
        </mxCell>
        <mxCell id="5G4IDF_U-Jctl3EP4ENw-15" value="Partager eveneement" style="html=1;overflow=block;blockSpacing=1;whiteSpace=wrap;ellipse;fontSize=13;spacing=3.8;strokeColor=#5e5e5e;strokeOpacity=100;rounded=1;absoluteArcSize=1;arcSize=9;strokeWidth=2.3;lucidId=.BitsejxpJ_f;" vertex="1" parent="1">
          <mxGeometry x="280" y="2459" width="195" height="90" as="geometry" />
        </mxCell>
        <mxCell id="5G4IDF_U-Jctl3EP4ENw-93" style="edgeStyle=orthogonalEdgeStyle;rounded=0;orthogonalLoop=1;jettySize=auto;html=1;exitX=0.5;exitY=0;exitDx=0;exitDy=0;entryX=0.594;entryY=1.025;entryDx=0;entryDy=0;entryPerimeter=0;" edge="1" parent="1" target="5G4IDF_U-Jctl3EP4ENw-64">
          <mxGeometry relative="1" as="geometry">
            <mxPoint x="498" y="3830" as="sourcePoint" />
          </mxGeometry>
        </mxCell>
        <mxCell id="5G4IDF_U-Jctl3EP4ENw-92" style="edgeStyle=orthogonalEdgeStyle;rounded=0;orthogonalLoop=1;jettySize=auto;html=1;exitX=0.5;exitY=0;exitDx=0;exitDy=0;" edge="1" parent="1" target="5G4IDF_U-Jctl3EP4ENw-65">
          <mxGeometry relative="1" as="geometry">
            <mxPoint x="720" y="3799" as="sourcePoint" />
          </mxGeometry>
        </mxCell>
        <mxCell id="5G4IDF_U-Jctl3EP4ENw-91" style="edgeStyle=orthogonalEdgeStyle;rounded=0;orthogonalLoop=1;jettySize=auto;html=1;exitX=0.5;exitY=0;exitDx=0;exitDy=0;" edge="1" parent="1" target="5G4IDF_U-Jctl3EP4ENw-66">
          <mxGeometry relative="1" as="geometry">
            <mxPoint x="960" y="3799" as="sourcePoint" />
          </mxGeometry>
        </mxCell>
        <mxCell id="5G4IDF_U-Jctl3EP4ENw-19" value="Consulter les evenements" style="html=1;overflow=block;blockSpacing=1;whiteSpace=wrap;ellipse;fontSize=13;spacing=3.8;strokeColor=#5e5e5e;strokeOpacity=100;rounded=1;absoluteArcSize=1;arcSize=9;strokeWidth=2.3;lucidId=soitjvf58P_N;" vertex="1" parent="1">
          <mxGeometry x="460" y="179" width="165" height="90" as="geometry" />
        </mxCell>
        <mxCell id="5G4IDF_U-Jctl3EP4ENw-20" value="Client" style="html=1;overflow=block;blockSpacing=1;shape=umlActor;labelPosition=center;verticalLabelPosition=bottom;verticalAlign=top;whiteSpace=nowrap;fontSize=16.7;fontColor=#333333;align=center;spacing=0;strokeColor=#5e5e5e;strokeOpacity=100;rounded=1;absoluteArcSize=1;arcSize=9;strokeWidth=2.3;lucidId=Zoit8c.qYpQ7;" vertex="1" parent="1">
          <mxGeometry x="70" y="329" width="60" height="135" as="geometry" />
        </mxCell>
        <mxCell id="5G4IDF_U-Jctl3EP4ENw-21" value="" style="html=1;jettySize=18;whiteSpace=wrap;fontSize=13;strokeColor=#5E5E5E;strokeWidth=1.5;rounded=1;arcSize=12;edgeStyle=orthogonalEdgeStyle;startArrow=none;endArrow=block;endFill=1;lucidId=mpitS5lhm7C1;" edge="1" parent="1">
          <mxGeometry width="100" height="100" relative="1" as="geometry">
            <Array as="points" />
            <mxPoint x="626" y="118" as="sourcePoint" />
            <mxPoint x="626" y="118" as="targetPoint" />
          </mxGeometry>
        </mxCell>
        <mxCell id="5G4IDF_U-Jctl3EP4ENw-22" value="" style="html=1;jettySize=18;whiteSpace=wrap;fontSize=13;strokeColor=#5E5E5E;strokeWidth=1.5;rounded=1;arcSize=12;edgeStyle=orthogonalEdgeStyle;startArrow=none;endArrow=none;exitX=0.519;exitY=0.438;exitPerimeter=0;entryX=0.017;entryY=0.657;entryPerimeter=0;lucidId=TritnC.DPWvg;" edge="1" parent="1">
          <mxGeometry width="100" height="100" relative="1" as="geometry">
            <Array as="points" />
            <mxPoint x="101.14000000000033" y="118.13000000000011" as="sourcePoint" />
            <mxPoint x="462.8050000000003" y="118.13000000000011" as="targetPoint" />
          </mxGeometry>
        </mxCell>
        <mxCell id="5G4IDF_U-Jctl3EP4ENw-23" value="" style="html=1;jettySize=18;whiteSpace=wrap;fontSize=13;strokeColor=#5E5E5E;strokeWidth=1.5;rounded=1;arcSize=12;edgeStyle=orthogonalEdgeStyle;startArrow=none;endArrow=none;exitX=-0.007;exitY=0.5;exitPerimeter=0;entryX=0.519;entryY=0.5;entryPerimeter=0;lucidId=xsitqul2D.Xv;" edge="1" parent="1" source="5G4IDF_U-Jctl3EP4ENw-19">
          <mxGeometry width="100" height="100" relative="1" as="geometry">
            <Array as="points" />
            <mxPoint x="101.14000000000033" y="126.5" as="targetPoint" />
          </mxGeometry>
        </mxCell>
        <mxCell id="5G4IDF_U-Jctl3EP4ENw-24" value="Gerer le profil" style="html=1;overflow=block;blockSpacing=1;whiteSpace=wrap;ellipse;fontSize=13;spacing=3.8;strokeColor=#5e5e5e;strokeOpacity=100;rounded=1;absoluteArcSize=1;arcSize=9;strokeWidth=2.3;lucidId=3sitsereLQRn;" vertex="1" parent="1">
          <mxGeometry x="483" y="299" width="120" height="90" as="geometry" />
        </mxCell>
        <mxCell id="5G4IDF_U-Jctl3EP4ENw-25" value="Gestion de panier" style="html=1;overflow=block;blockSpacing=1;whiteSpace=wrap;ellipse;fontSize=13;spacing=3.8;strokeColor=#5e5e5e;strokeOpacity=100;rounded=1;absoluteArcSize=1;arcSize=9;strokeWidth=2.3;lucidId=atit3Y5sFF7p;" vertex="1" parent="1">
          <mxGeometry x="475" y="404" width="120" height="90" as="geometry" />
        </mxCell>
        <mxCell id="5G4IDF_U-Jctl3EP4ENw-26" value="Reservation Evenet" style="html=1;overflow=block;blockSpacing=1;whiteSpace=wrap;ellipse;fontSize=13;spacing=3.8;strokeColor=#5e5e5e;strokeOpacity=100;rounded=1;absoluteArcSize=1;arcSize=9;strokeWidth=2.3;lucidId=jtitNFk_JNwB;" vertex="1" parent="1">
          <mxGeometry x="475" y="509" width="120" height="90" as="geometry" />
        </mxCell>
        <mxCell id="5G4IDF_U-Jctl3EP4ENw-27" value="Consulter liste ludification" style="html=1;overflow=block;blockSpacing=1;whiteSpace=wrap;ellipse;fontSize=13;spacing=3.8;strokeColor=#5e5e5e;strokeOpacity=100;rounded=1;absoluteArcSize=1;arcSize=9;strokeWidth=2.3;lucidId=AtitZLWRrcX2;" vertex="1" parent="1">
          <mxGeometry x="483" y="599" width="120" height="90" as="geometry" />
        </mxCell>
        <mxCell id="5G4IDF_U-Jctl3EP4ENw-28" value="Gerer la liste des utilisateur" style="html=1;overflow=block;blockSpacing=1;whiteSpace=wrap;ellipse;fontSize=13;spacing=3.8;strokeColor=#5e5e5e;strokeOpacity=100;rounded=1;absoluteArcSize=1;arcSize=9;strokeWidth=2.3;lucidId=kuitx5RgH1xn;" vertex="1" parent="1">
          <mxGeometry x="580" y="704" width="120" height="90" as="geometry" />
        </mxCell>
        <mxCell id="5G4IDF_U-Jctl3EP4ENw-29" value="Ajouter u ami &#39;abonner&#39;" style="html=1;overflow=block;blockSpacing=1;whiteSpace=wrap;ellipse;fontSize=13;spacing=3.8;strokeColor=#5e5e5e;strokeOpacity=100;rounded=1;absoluteArcSize=1;arcSize=9;strokeWidth=2.3;lucidId=yuiteOMJiaQA;" vertex="1" parent="1">
          <mxGeometry x="595" y="824" width="120" height="90" as="geometry" />
        </mxCell>
        <mxCell id="5G4IDF_U-Jctl3EP4ENw-30" value="Supprimer un ami" style="html=1;overflow=block;blockSpacing=1;whiteSpace=wrap;ellipse;fontSize=13;spacing=3.8;strokeColor=#5e5e5e;strokeOpacity=100;rounded=1;absoluteArcSize=1;arcSize=9;strokeWidth=2.3;lucidId=Juitxt.MBrJM;" vertex="1" parent="1">
          <mxGeometry x="415" y="839" width="120" height="90" as="geometry" />
        </mxCell>
        <mxCell id="5G4IDF_U-Jctl3EP4ENw-31" value="Consulter la liste des utilisateurs" style="html=1;overflow=block;blockSpacing=1;whiteSpace=wrap;ellipse;fontSize=13;spacing=3.8;strokeColor=#5e5e5e;strokeOpacity=100;rounded=1;absoluteArcSize=1;arcSize=9;strokeWidth=2.3;lucidId=SuitE4AoL12q;" vertex="1" parent="1">
          <mxGeometry x="760" y="839" width="150" height="75" as="geometry" />
        </mxCell>
        <mxCell id="5G4IDF_U-Jctl3EP4ENw-32" value="S&#39;authentifier" style="html=1;overflow=block;blockSpacing=1;whiteSpace=wrap;ellipse;fontSize=13;spacing=3.8;strokeColor=#5e5e5e;strokeOpacity=100;rounded=1;absoluteArcSize=1;arcSize=9;strokeWidth=2.3;lucidId=XvitAHHM73nt;" vertex="1" parent="1">
          <mxGeometry x="771" y="413" width="120" height="90" as="geometry" />
        </mxCell>
        <mxCell id="5G4IDF_U-Jctl3EP4ENw-33" value="Deconnecter" style="html=1;overflow=block;blockSpacing=1;whiteSpace=wrap;ellipse;fontSize=13;spacing=3.8;strokeColor=#5e5e5e;strokeOpacity=100;rounded=1;absoluteArcSize=1;arcSize=9;strokeWidth=2.3;lucidId=XvitmW9DInrr;" vertex="1" parent="1">
          <mxGeometry x="805" y="284" width="120" height="90" as="geometry" />
        </mxCell>
        <mxCell id="5G4IDF_U-Jctl3EP4ENw-34" value="" style="html=1;jettySize=18;whiteSpace=wrap;fontSize=13;strokeColor=#5E5E5E;strokeWidth=1.5;rounded=1;arcSize=12;edgeStyle=orthogonalEdgeStyle;startArrow=none;endArrow=none;exitX=0.519;exitY=0.5;exitPerimeter=0;entryX=-0.009;entryY=0.5;entryPerimeter=0;lucidId=uwitn57VtS-p;" edge="1" parent="1" source="5G4IDF_U-Jctl3EP4ENw-20" target="5G4IDF_U-Jctl3EP4ENw-24">
          <mxGeometry width="100" height="100" relative="1" as="geometry">
            <Array as="points" />
          </mxGeometry>
        </mxCell>
        <mxCell id="5G4IDF_U-Jctl3EP4ENw-35" value="" style="html=1;jettySize=18;whiteSpace=wrap;fontSize=13;strokeColor=#5E5E5E;strokeWidth=1.5;rounded=1;arcSize=12;edgeStyle=orthogonalEdgeStyle;startArrow=none;endArrow=none;entryX=-0.009;entryY=0.5;entryPerimeter=0;lucidId=xwitSEJRgs7D;" edge="1" parent="1" target="5G4IDF_U-Jctl3EP4ENw-25">
          <mxGeometry width="100" height="100" relative="1" as="geometry">
            <Array as="points" />
            <mxPoint x="145" y="397" as="sourcePoint" />
          </mxGeometry>
        </mxCell>
        <mxCell id="5G4IDF_U-Jctl3EP4ENw-36" value="" style="html=1;jettySize=18;whiteSpace=wrap;fontSize=13;strokeColor=#5E5E5E;strokeWidth=1.5;rounded=1;arcSize=12;edgeStyle=orthogonalEdgeStyle;startArrow=none;endArrow=none;entryX=-0.009;entryY=0.5;entryPerimeter=0;lucidId=EwitnhvqmceC;exitX=0.5;exitY=0.5;exitDx=0;exitDy=0;exitPerimeter=0;" edge="1" parent="1" source="5G4IDF_U-Jctl3EP4ENw-20" target="5G4IDF_U-Jctl3EP4ENw-27">
          <mxGeometry width="100" height="100" relative="1" as="geometry">
            <Array as="points">
              <mxPoint x="100" y="449" />
              <mxPoint x="205" y="449" />
              <mxPoint x="205" y="644" />
            </Array>
            <mxPoint x="146" y="449" as="sourcePoint" />
          </mxGeometry>
        </mxCell>
        <mxCell id="5G4IDF_U-Jctl3EP4ENw-37" value="" style="html=1;jettySize=18;whiteSpace=wrap;fontSize=13;strokeColor=#5E5E5E;strokeWidth=1.5;rounded=1;arcSize=12;edgeStyle=orthogonalEdgeStyle;startArrow=none;endArrow=none;entryX=-0.009;entryY=0.5;entryPerimeter=0;lucidId=VwitKGgVvQV3;exitX=0.5;exitY=0.5;exitDx=0;exitDy=0;exitPerimeter=0;" edge="1" parent="1" source="5G4IDF_U-Jctl3EP4ENw-20" target="5G4IDF_U-Jctl3EP4ENw-28">
          <mxGeometry width="100" height="100" relative="1" as="geometry">
            <Array as="points">
              <mxPoint x="100" y="675" />
              <mxPoint x="468" y="675" />
              <mxPoint x="468" y="749" />
            </Array>
            <mxPoint x="146" y="449" as="sourcePoint" />
          </mxGeometry>
        </mxCell>
        <mxCell id="5G4IDF_U-Jctl3EP4ENw-38" value="" style="html=1;jettySize=18;whiteSpace=wrap;fontSize=13;strokeColor=#5E5E5E;strokeWidth=1.5;rounded=1;arcSize=12;edgeStyle=orthogonalEdgeStyle;startArrow=none;endArrow=block;endFill=0;exitX=0.389;exitY=0;exitPerimeter=0;entryX=0.121;entryY=0.843;entryPerimeter=0;lucidId=_witxVBQDQPL;" edge="1" parent="1" source="5G4IDF_U-Jctl3EP4ENw-30" target="5G4IDF_U-Jctl3EP4ENw-28">
          <mxGeometry width="100" height="100" relative="1" as="geometry">
            <Array as="points" />
          </mxGeometry>
        </mxCell>
        <mxCell id="5G4IDF_U-Jctl3EP4ENw-39" value="" style="html=1;jettySize=18;whiteSpace=wrap;fontSize=13;strokeColor=#5E5E5E;strokeWidth=1.5;rounded=1;arcSize=12;edgeStyle=orthogonalEdgeStyle;startArrow=none;endArrow=block;endFill=0;exitX=0.5;exitY=-0.013;exitPerimeter=0;entryX=1.009;entryY=0.5;entryPerimeter=0;lucidId=hxitQ018nh-G;" edge="1" parent="1" source="5G4IDF_U-Jctl3EP4ENw-29" target="5G4IDF_U-Jctl3EP4ENw-28">
          <mxGeometry width="100" height="100" relative="1" as="geometry">
            <Array as="points" />
          </mxGeometry>
        </mxCell>
        <mxCell id="5G4IDF_U-Jctl3EP4ENw-40" value="" style="html=1;jettySize=18;whiteSpace=wrap;fontSize=13;strokeColor=#5E5E5E;strokeWidth=1.5;rounded=1;arcSize=12;edgeStyle=orthogonalEdgeStyle;startArrow=none;endArrow=block;endFill=0;exitX=0.5;exitY=-0.015;exitPerimeter=0;entryX=1.009;entryY=0.5;entryPerimeter=0;lucidId=qxit4EoMMmFK;" edge="1" parent="1" source="5G4IDF_U-Jctl3EP4ENw-31" target="5G4IDF_U-Jctl3EP4ENw-28">
          <mxGeometry width="100" height="100" relative="1" as="geometry">
            <Array as="points" />
          </mxGeometry>
        </mxCell>
        <mxCell id="5G4IDF_U-Jctl3EP4ENw-41" value="" style="html=1;jettySize=18;whiteSpace=wrap;fontSize=13;strokeColor=#5E5E5E;strokeWidth=1.5;rounded=1;arcSize=12;edgeStyle=orthogonalEdgeStyle;startArrow=none;endArrow=block;endFill=1;exitX=0.5;exitY=-0.008;exitPerimeter=0;entryX=0.5;entryY=0.542;entryPerimeter=0;lucidId=Kzith7.PF6Yj;" edge="1" parent="1" source="5G4IDF_U-Jctl3EP4ENw-20">
          <mxGeometry width="100" height="100" relative="1" as="geometry">
            <Array as="points" />
            <mxPoint x="100" y="132.17000000000007" as="targetPoint" />
          </mxGeometry>
        </mxCell>
        <mxCell id="5G4IDF_U-Jctl3EP4ENw-42" style="edgeStyle=orthogonalEdgeStyle;rounded=0;orthogonalLoop=1;jettySize=auto;html=1;exitX=0.5;exitY=0.5;exitDx=0;exitDy=0;exitPerimeter=0;entryX=0;entryY=0.5;entryDx=0;entryDy=0;endArrow=none;endFill=0;" edge="1" parent="1" source="5G4IDF_U-Jctl3EP4ENw-43" target="5G4IDF_U-Jctl3EP4ENw-2">
          <mxGeometry relative="1" as="geometry" />
        </mxCell>
        <mxCell id="5G4IDF_U-Jctl3EP4ENw-43" value="Portier" style="html=1;overflow=block;blockSpacing=1;shape=umlActor;labelPosition=center;verticalLabelPosition=bottom;verticalAlign=top;whiteSpace=nowrap;fontSize=16.7;fontColor=#333333;align=center;spacing=0;strokeColor=#5e5e5e;strokeOpacity=100;rounded=1;absoluteArcSize=1;arcSize=9;strokeWidth=2.3;lucidId=wAitfE4UTxwo;" vertex="1" parent="1">
          <mxGeometry x="100" y="1004" width="60" height="135" as="geometry" />
        </mxCell>
        <mxCell id="5G4IDF_U-Jctl3EP4ENw-44" style="edgeStyle=orthogonalEdgeStyle;rounded=0;orthogonalLoop=1;jettySize=auto;html=1;exitX=0;exitY=0.5;exitDx=0;exitDy=0;entryX=0.5;entryY=0.5;entryDx=0;entryDy=0;entryPerimeter=0;" edge="1" parent="1" source="5G4IDF_U-Jctl3EP4ENw-45" target="5G4IDF_U-Jctl3EP4ENw-43">
          <mxGeometry relative="1" as="geometry">
            <mxPoint x="165" y="1079" as="targetPoint" />
          </mxGeometry>
        </mxCell>
        <mxCell id="5G4IDF_U-Jctl3EP4ENw-45" value="Consulter la liste des evenements supervisé" style="html=1;overflow=block;blockSpacing=1;whiteSpace=wrap;ellipse;fontSize=13;spacing=3.8;strokeColor=#5e5e5e;strokeOpacity=100;rounded=1;absoluteArcSize=1;arcSize=9;strokeWidth=2.3;lucidId=eDitzyq0~7Tt;" vertex="1" parent="1">
          <mxGeometry x="520" y="1169" width="120" height="90" as="geometry" />
        </mxCell>
        <mxCell id="5G4IDF_U-Jctl3EP4ENw-46" style="edgeStyle=orthogonalEdgeStyle;rounded=0;orthogonalLoop=1;jettySize=auto;html=1;exitX=0.5;exitY=0;exitDx=0;exitDy=0;entryX=0.5;entryY=1;entryDx=0;entryDy=0;" edge="1" parent="1" source="5G4IDF_U-Jctl3EP4ENw-47" target="5G4IDF_U-Jctl3EP4ENw-45">
          <mxGeometry relative="1" as="geometry" />
        </mxCell>
        <mxCell id="5G4IDF_U-Jctl3EP4ENw-47" value="Verfier les reservations des clients" style="html=1;overflow=block;blockSpacing=1;whiteSpace=wrap;ellipse;fontSize=13;spacing=3.8;strokeColor=#5e5e5e;strokeOpacity=100;rounded=1;absoluteArcSize=1;arcSize=9;strokeWidth=2.3;lucidId=tDitnoB0Gj56;" vertex="1" parent="1">
          <mxGeometry x="520" y="1274" width="120" height="90" as="geometry" />
        </mxCell>
        <mxCell id="5G4IDF_U-Jctl3EP4ENw-48" style="edgeStyle=orthogonalEdgeStyle;rounded=0;orthogonalLoop=1;jettySize=auto;html=1;exitX=0.5;exitY=0;exitDx=0;exitDy=0;entryX=1;entryY=0.5;entryDx=0;entryDy=0;" edge="1" parent="1" source="5G4IDF_U-Jctl3EP4ENw-49" target="5G4IDF_U-Jctl3EP4ENw-47">
          <mxGeometry relative="1" as="geometry" />
        </mxCell>
        <mxCell id="5G4IDF_U-Jctl3EP4ENw-49" value="Code Qr Reader" style="html=1;overflow=block;blockSpacing=1;whiteSpace=wrap;ellipse;fontSize=13;spacing=3.8;strokeColor=#5e5e5e;strokeOpacity=100;rounded=1;absoluteArcSize=1;arcSize=9;strokeWidth=2.3;lucidId=FDit9r1I3Rdw;" vertex="1" parent="1">
          <mxGeometry x="634" y="1350" width="120" height="90" as="geometry" />
        </mxCell>
        <mxCell id="5G4IDF_U-Jctl3EP4ENw-50" style="edgeStyle=orthogonalEdgeStyle;rounded=0;orthogonalLoop=1;jettySize=auto;html=1;exitX=0.5;exitY=0;exitDx=0;exitDy=0;entryX=0;entryY=0.5;entryDx=0;entryDy=0;" edge="1" parent="1" source="5G4IDF_U-Jctl3EP4ENw-51" target="5G4IDF_U-Jctl3EP4ENw-47">
          <mxGeometry relative="1" as="geometry" />
        </mxCell>
        <mxCell id="5G4IDF_U-Jctl3EP4ENw-51" value="Listes des participants" style="html=1;overflow=block;blockSpacing=1;whiteSpace=wrap;ellipse;fontSize=13;spacing=3.8;strokeColor=#5e5e5e;strokeOpacity=100;rounded=1;absoluteArcSize=1;arcSize=9;strokeWidth=2.3;lucidId=GDitkXp_RSrx;" vertex="1" parent="1">
          <mxGeometry x="430" y="1364" width="120" height="90" as="geometry" />
        </mxCell>
        <mxCell id="5G4IDF_U-Jctl3EP4ENw-52" value="Gestion des comptes utilisateurs" style="html=1;overflow=block;blockSpacing=1;whiteSpace=wrap;ellipse;fontSize=13;spacing=3.8;strokeColor=#5e5e5e;strokeOpacity=100;rounded=1;absoluteArcSize=1;arcSize=9;strokeWidth=2.3;lucidId=2CmtHglSXUaJ;" vertex="1" parent="1">
          <mxGeometry x="415" y="2804" width="188" height="75" as="geometry" />
        </mxCell>
        <mxCell id="5G4IDF_U-Jctl3EP4ENw-53" value="Consulter les  statistiues d&#39;applications" style="html=1;overflow=block;blockSpacing=1;whiteSpace=wrap;ellipse;fontSize=13;spacing=3.8;strokeColor=#5e5e5e;strokeOpacity=100;rounded=1;absoluteArcSize=1;arcSize=9;strokeWidth=2.3;lucidId=4Cmtud14x5Y7;" vertex="1" parent="1">
          <mxGeometry x="415" y="2909" width="210" height="60" as="geometry" />
        </mxCell>
        <mxCell id="5G4IDF_U-Jctl3EP4ENw-54" value="Verifier Organizateur" style="html=1;overflow=block;blockSpacing=1;whiteSpace=wrap;ellipse;fontSize=13;spacing=3.8;strokeColor=#5e5e5e;strokeOpacity=100;rounded=1;absoluteArcSize=1;arcSize=9;strokeWidth=2.3;lucidId=6CmtnAD3XU6T;" vertex="1" parent="1">
          <mxGeometry x="415" y="3014" width="195" height="60" as="geometry" />
        </mxCell>
        <mxCell id="5G4IDF_U-Jctl3EP4ENw-55" value="Gerer  Artists" style="html=1;overflow=block;blockSpacing=1;whiteSpace=wrap;ellipse;fontSize=13;spacing=3.8;strokeColor=#5e5e5e;strokeOpacity=100;rounded=1;absoluteArcSize=1;arcSize=9;strokeWidth=2.3;lucidId=9Cmt3dIYTxuM;" vertex="1" parent="1">
          <mxGeometry x="415" y="3119" width="120" height="90" as="geometry" />
        </mxCell>
        <mxCell id="5G4IDF_U-Jctl3EP4ENw-57" value="Verifier  Organiizateur" style="html=1;overflow=block;blockSpacing=1;whiteSpace=wrap;ellipse;fontSize=13;spacing=3.8;strokeColor=#5e5e5e;strokeOpacity=100;rounded=1;absoluteArcSize=1;arcSize=9;strokeWidth=2.3;lucidId=vEmtup_oRFgD;" vertex="1" parent="1">
          <mxGeometry x="379" y="3254" width="210" height="75" as="geometry" />
        </mxCell>
        <mxCell id="5G4IDF_U-Jctl3EP4ENw-58" value="Decativer profil" style="html=1;overflow=block;blockSpacing=1;whiteSpace=wrap;ellipse;fontSize=13;spacing=3.8;strokeColor=#5e5e5e;strokeOpacity=100;rounded=1;absoluteArcSize=1;arcSize=9;strokeWidth=2.3;lucidId=UEmtKaLi1W1V;" vertex="1" parent="1">
          <mxGeometry x="685" y="3179" width="210" height="75" as="geometry" />
        </mxCell>
        <mxCell id="5G4IDF_U-Jctl3EP4ENw-59" value="Consulter le profil" style="html=1;overflow=block;blockSpacing=1;whiteSpace=wrap;ellipse;fontSize=13;spacing=3.8;strokeColor=#5e5e5e;strokeOpacity=100;rounded=1;absoluteArcSize=1;arcSize=9;strokeWidth=2.3;lucidId=9EmtDgn2g~nr;" vertex="1" parent="1">
          <mxGeometry x="700" y="3269" width="210" height="75" as="geometry" />
        </mxCell>
        <mxCell id="5G4IDF_U-Jctl3EP4ENw-60" value="Mofifier profil" style="html=1;overflow=block;blockSpacing=1;whiteSpace=wrap;ellipse;fontSize=13;spacing=3.8;strokeColor=#5e5e5e;strokeOpacity=100;rounded=1;absoluteArcSize=1;arcSize=9;strokeWidth=2.3;lucidId=lFmtOqZzf6Zj;" vertex="1" parent="1">
          <mxGeometry x="700" y="3359" width="210" height="75" as="geometry" />
        </mxCell>
        <mxCell id="5G4IDF_U-Jctl3EP4ENw-61" value="Chat" style="html=1;overflow=block;blockSpacing=1;whiteSpace=wrap;ellipse;fontSize=13;spacing=3.8;strokeColor=#5e5e5e;strokeOpacity=100;rounded=1;absoluteArcSize=1;arcSize=9;strokeWidth=2.3;lucidId=zFmtClotAud6;" vertex="1" parent="1">
          <mxGeometry x="393" y="3449" width="210" height="75" as="geometry" />
        </mxCell>
        <mxCell id="5G4IDF_U-Jctl3EP4ENw-62" value="Consulter la liste des evenements favoris" style="html=1;overflow=block;blockSpacing=1;whiteSpace=wrap;ellipse;fontSize=13;spacing=3.8;strokeColor=#5e5e5e;strokeOpacity=100;rounded=1;absoluteArcSize=1;arcSize=9;strokeWidth=2.3;lucidId=2FmtQf8mHPAP;" vertex="1" parent="1">
          <mxGeometry x="310" y="3569" width="360" height="45" as="geometry" />
        </mxCell>
        <mxCell id="5G4IDF_U-Jctl3EP4ENw-63" value="Consulter la liste des evenemts reseervé" style="html=1;overflow=block;blockSpacing=1;whiteSpace=wrap;ellipse;fontSize=13;spacing=3.8;strokeColor=#5e5e5e;strokeOpacity=100;rounded=1;absoluteArcSize=1;arcSize=9;strokeWidth=2.3;lucidId=mGmt4DAFEJal;" vertex="1" parent="1">
          <mxGeometry x="725" y="3530" width="360" height="45" as="geometry" />
        </mxCell>
        <mxCell id="5G4IDF_U-Jctl3EP4ENw-64" value="Reservation  ticket" style="html=1;overflow=block;blockSpacing=1;whiteSpace=wrap;ellipse;fontSize=13;spacing=3.8;strokeColor=#5e5e5e;strokeOpacity=100;rounded=1;absoluteArcSize=1;arcSize=9;strokeWidth=2.3;lucidId=RGmtVi8AV7nn;" vertex="1" parent="1">
          <mxGeometry x="340" y="3674" width="210" height="75" as="geometry" />
        </mxCell>
        <mxCell id="5G4IDF_U-Jctl3EP4ENw-95" style="edgeStyle=orthogonalEdgeStyle;rounded=0;orthogonalLoop=1;jettySize=auto;html=1;exitX=0.5;exitY=0;exitDx=0;exitDy=0;" edge="1" parent="1" source="5G4IDF_U-Jctl3EP4ENw-65" target="5G4IDF_U-Jctl3EP4ENw-62">
          <mxGeometry relative="1" as="geometry" />
        </mxCell>
        <mxCell id="5G4IDF_U-Jctl3EP4ENw-65" value="Supprimer evenement" style="html=1;overflow=block;blockSpacing=1;whiteSpace=wrap;ellipse;fontSize=13;spacing=3.8;strokeColor=#5e5e5e;strokeOpacity=100;rounded=1;absoluteArcSize=1;arcSize=9;strokeWidth=2.3;lucidId=1GmtvfArZXu1;" vertex="1" parent="1">
          <mxGeometry x="580" y="3689" width="210" height="75" as="geometry" />
        </mxCell>
        <mxCell id="5G4IDF_U-Jctl3EP4ENw-66" value="Ajouter evenement aux favoris" style="html=1;overflow=block;blockSpacing=1;whiteSpace=wrap;ellipse;fontSize=13;spacing=3.8;strokeColor=#5e5e5e;strokeOpacity=100;rounded=1;absoluteArcSize=1;arcSize=9;strokeWidth=2.3;lucidId=9Gmt70UD0CTz;" vertex="1" parent="1">
          <mxGeometry x="835" y="3674" width="210" height="75" as="geometry" />
        </mxCell>
        <mxCell id="5G4IDF_U-Jctl3EP4ENw-67" value="" style="html=1;jettySize=18;whiteSpace=wrap;fontSize=13;strokeColor=#5E5E5E;strokeWidth=1.5;rounded=1;arcSize=12;edgeStyle=orthogonalEdgeStyle;startArrow=none;endArrow=block;endFill=1;exitX=0.5;exitY=-0.015;exitPerimeter=0;entryX=0.375;entryY=1.005;entryPerimeter=0;lucidId=oHmty7-V5Fug;" edge="1" parent="1" source="5G4IDF_U-Jctl3EP4ENw-64" target="5G4IDF_U-Jctl3EP4ENw-62">
          <mxGeometry width="100" height="100" relative="1" as="geometry">
            <Array as="points" />
          </mxGeometry>
        </mxCell>
        <mxCell id="5G4IDF_U-Jctl3EP4ENw-69" value="" style="html=1;jettySize=18;whiteSpace=wrap;fontSize=13;strokeColor=#5E5E5E;strokeWidth=1.5;rounded=1;arcSize=12;edgeStyle=orthogonalEdgeStyle;startArrow=none;endArrow=block;endFill=1;exitX=0.5;exitY=-0.015;exitPerimeter=0;entryX=0.506;entryY=1.024;entryPerimeter=0;lucidId=zHmtEKJRXJli;" edge="1" parent="1" source="5G4IDF_U-Jctl3EP4ENw-66" target="5G4IDF_U-Jctl3EP4ENw-63">
          <mxGeometry width="100" height="100" relative="1" as="geometry">
            <Array as="points" />
          </mxGeometry>
        </mxCell>
        <mxCell id="5G4IDF_U-Jctl3EP4ENw-70" value="" style="html=1;jettySize=18;whiteSpace=wrap;fontSize=13;strokeColor=#5E5E5E;strokeWidth=1.5;rounded=1;arcSize=12;edgeStyle=orthogonalEdgeStyle;startArrow=none;endArrow=block;endFill=1;exitX=0.5;exitY=-0.025;exitPerimeter=0;entryX=0.464;entryY=1.013;entryPerimeter=0;lucidId=EHmtWlyCZZdp;" edge="1" parent="1" source="5G4IDF_U-Jctl3EP4ENw-62" target="5G4IDF_U-Jctl3EP4ENw-61">
          <mxGeometry width="100" height="100" relative="1" as="geometry">
            <Array as="points" />
          </mxGeometry>
        </mxCell>
        <mxCell id="5G4IDF_U-Jctl3EP4ENw-71" value="" style="html=1;jettySize=18;whiteSpace=wrap;fontSize=13;strokeColor=#5E5E5E;strokeWidth=1.5;rounded=1;arcSize=12;edgeStyle=orthogonalEdgeStyle;startArrow=none;endArrow=block;endFill=1;exitX=0.5;exitY=-0.025;exitPerimeter=0;entryX=1.005;entryY=0.5;entryPerimeter=0;lucidId=HHmtfgAWmcY.;" edge="1" parent="1" source="5G4IDF_U-Jctl3EP4ENw-63" target="5G4IDF_U-Jctl3EP4ENw-61">
          <mxGeometry width="100" height="100" relative="1" as="geometry">
            <Array as="points" />
          </mxGeometry>
        </mxCell>
        <mxCell id="5G4IDF_U-Jctl3EP4ENw-72" value="" style="html=1;jettySize=18;whiteSpace=wrap;fontSize=13;strokeColor=#5E5E5E;strokeWidth=1.5;rounded=1;arcSize=12;edgeStyle=orthogonalEdgeStyle;startArrow=none;endArrow=none;exitX=-0.006;exitY=0.5;exitPerimeter=0;entryX=0.519;entryY=0.5;entryPerimeter=0;lucidId=ZHmtpmNAPGJC;" edge="1" parent="1" source="5G4IDF_U-Jctl3EP4ENw-52">
          <mxGeometry width="100" height="100" relative="1" as="geometry">
            <Array as="points" />
            <mxPoint x="71.14000000000033" y="2961.5" as="targetPoint" />
          </mxGeometry>
        </mxCell>
        <mxCell id="5G4IDF_U-Jctl3EP4ENw-73" value="" style="html=1;jettySize=18;whiteSpace=wrap;fontSize=13;strokeColor=#5E5E5E;strokeWidth=1.5;rounded=1;arcSize=12;edgeStyle=orthogonalEdgeStyle;startArrow=none;endArrow=none;exitX=-0.005;exitY=0.5;exitPerimeter=0;lucidId=6Hmt9NX5txgA;" edge="1" parent="1" source="5G4IDF_U-Jctl3EP4ENw-53">
          <mxGeometry width="100" height="100" relative="1" as="geometry">
            <Array as="points" />
            <mxPoint x="102.99999999999955" y="2962" as="targetPoint" />
          </mxGeometry>
        </mxCell>
        <mxCell id="5G4IDF_U-Jctl3EP4ENw-74" value="" style="html=1;jettySize=18;whiteSpace=wrap;fontSize=13;strokeColor=#5E5E5E;strokeWidth=1.5;rounded=1;arcSize=12;edgeStyle=orthogonalEdgeStyle;startArrow=none;endArrow=none;exitX=-0.006;exitY=0.5;exitPerimeter=0;lucidId=bImtluqSiDk2;" edge="1" parent="1" source="5G4IDF_U-Jctl3EP4ENw-54">
          <mxGeometry width="100" height="100" relative="1" as="geometry">
            <Array as="points" />
            <mxPoint x="106" y="2962" as="targetPoint" />
          </mxGeometry>
        </mxCell>
        <mxCell id="5G4IDF_U-Jctl3EP4ENw-75" value="" style="html=1;jettySize=18;whiteSpace=wrap;fontSize=13;strokeColor=#5E5E5E;strokeWidth=1.5;rounded=1;arcSize=12;edgeStyle=orthogonalEdgeStyle;startArrow=none;endArrow=none;exitX=-0.009;exitY=0.5;exitPerimeter=0;lucidId=gImt8u_Dkexs;" edge="1" parent="1" source="5G4IDF_U-Jctl3EP4ENw-55">
          <mxGeometry width="100" height="100" relative="1" as="geometry">
            <Array as="points" />
            <mxPoint x="100" y="2962" as="targetPoint" />
          </mxGeometry>
        </mxCell>
        <mxCell id="5G4IDF_U-Jctl3EP4ENw-76" value="" style="html=1;jettySize=18;whiteSpace=wrap;fontSize=13;strokeColor=#5E5E5E;strokeWidth=1.5;rounded=1;arcSize=12;edgeStyle=orthogonalEdgeStyle;startArrow=none;endArrow=none;exitX=-0.005;exitY=0.5;exitPerimeter=0;lucidId=nImtBN8M5mBA;" edge="1" parent="1" source="5G4IDF_U-Jctl3EP4ENw-57">
          <mxGeometry width="100" height="100" relative="1" as="geometry">
            <Array as="points" />
            <mxPoint x="71" y="2962" as="targetPoint" />
          </mxGeometry>
        </mxCell>
        <mxCell id="5G4IDF_U-Jctl3EP4ENw-77" value="" style="html=1;jettySize=18;whiteSpace=wrap;fontSize=13;strokeColor=#5E5E5E;strokeWidth=1.5;rounded=1;arcSize=12;edgeStyle=orthogonalEdgeStyle;startArrow=none;endArrow=none;exitX=-0.005;exitY=0.5;exitPerimeter=0;lucidId=sImtSxUsSN19;" edge="1" parent="1" source="5G4IDF_U-Jctl3EP4ENw-61">
          <mxGeometry width="100" height="100" relative="1" as="geometry">
            <Array as="points">
              <mxPoint x="91" y="3507" />
            </Array>
            <mxPoint x="71" y="2985" as="targetPoint" />
          </mxGeometry>
        </mxCell>
        <mxCell id="5G4IDF_U-Jctl3EP4ENw-78" value="" style="html=1;jettySize=18;whiteSpace=wrap;fontSize=13;strokeColor=#5E5E5E;strokeWidth=1.5;rounded=1;arcSize=12;edgeStyle=orthogonalEdgeStyle;startArrow=none;endArrow=block;endFill=1;exitX=-0.005;exitY=0.5;exitPerimeter=0;entryX=1.005;entryY=0.5;entryPerimeter=0;lucidId=RImtE9g9BrEt;" edge="1" parent="1" source="5G4IDF_U-Jctl3EP4ENw-58" target="5G4IDF_U-Jctl3EP4ENw-57">
          <mxGeometry width="100" height="100" relative="1" as="geometry">
            <Array as="points" />
          </mxGeometry>
        </mxCell>
        <mxCell id="5G4IDF_U-Jctl3EP4ENw-79" style="edgeStyle=orthogonalEdgeStyle;rounded=0;orthogonalLoop=1;jettySize=auto;html=1;exitX=1;exitY=0.3333333333333333;exitDx=0;exitDy=0;exitPerimeter=0;entryX=0;entryY=0.5;entryDx=0;entryDy=0;" edge="1" parent="1" source="5G4IDF_U-Jctl3EP4ENw-80" target="5G4IDF_U-Jctl3EP4ENw-1">
          <mxGeometry relative="1" as="geometry" />
        </mxCell>
        <mxCell id="5G4IDF_U-Jctl3EP4ENw-80" value="&lt;div&gt;Organizateur&lt;/div&gt;&lt;div&gt;&lt;br&gt;&lt;/div&gt;" style="html=1;overflow=block;blockSpacing=1;shape=umlActor;labelPosition=center;verticalLabelPosition=bottom;verticalAlign=top;whiteSpace=nowrap;fontSize=16.7;fontColor=#333333;align=center;spacing=0;strokeColor=#5e5e5e;strokeOpacity=100;rounded=1;absoluteArcSize=1;arcSize=9;strokeWidth=2.3;lucidId=wAitfE4UTxwo;" vertex="1" parent="1">
          <mxGeometry x="55" y="1469" width="60" height="135" as="geometry" />
        </mxCell>
        <mxCell id="5G4IDF_U-Jctl3EP4ENw-81" style="edgeStyle=orthogonalEdgeStyle;rounded=0;orthogonalLoop=1;jettySize=auto;html=1;exitX=0;exitY=0.5;exitDx=0;exitDy=0;entryX=1;entryY=0.3333333333333333;entryDx=0;entryDy=0;entryPerimeter=0;endArrow=none;endFill=0;" edge="1" parent="1" source="5G4IDF_U-Jctl3EP4ENw-11" target="5G4IDF_U-Jctl3EP4ENw-80">
          <mxGeometry relative="1" as="geometry" />
        </mxCell>
        <mxCell id="5G4IDF_U-Jctl3EP4ENw-82" style="edgeStyle=orthogonalEdgeStyle;rounded=0;orthogonalLoop=1;jettySize=auto;html=1;exitX=0;exitY=0.5;exitDx=0;exitDy=0;endArrow=none;endFill=0;" edge="1" parent="1" source="5G4IDF_U-Jctl3EP4ENw-7">
          <mxGeometry relative="1" as="geometry">
            <mxPoint x="115" y="1509" as="targetPoint" />
          </mxGeometry>
        </mxCell>
        <mxCell id="5G4IDF_U-Jctl3EP4ENw-83" style="edgeStyle=orthogonalEdgeStyle;rounded=0;orthogonalLoop=1;jettySize=auto;html=1;exitX=0;exitY=0.5;exitDx=0;exitDy=0;endArrow=none;endFill=0;" edge="1" parent="1" source="5G4IDF_U-Jctl3EP4ENw-8" target="5G4IDF_U-Jctl3EP4ENw-80">
          <mxGeometry relative="1" as="geometry" />
        </mxCell>
        <mxCell id="5G4IDF_U-Jctl3EP4ENw-84" style="edgeStyle=orthogonalEdgeStyle;rounded=0;orthogonalLoop=1;jettySize=auto;html=1;exitX=0;exitY=0.5;exitDx=0;exitDy=0;endArrow=none;endFill=0;" edge="1" parent="1" source="5G4IDF_U-Jctl3EP4ENw-9">
          <mxGeometry relative="1" as="geometry">
            <mxPoint x="85" y="1599" as="targetPoint" />
          </mxGeometry>
        </mxCell>
        <mxCell id="5G4IDF_U-Jctl3EP4ENw-85" style="edgeStyle=orthogonalEdgeStyle;rounded=0;orthogonalLoop=1;jettySize=auto;html=1;exitX=0;exitY=0.5;exitDx=0;exitDy=0;endArrow=none;endFill=0;" edge="1" parent="1" source="5G4IDF_U-Jctl3EP4ENw-10">
          <mxGeometry relative="1" as="geometry">
            <mxPoint x="85" y="1589" as="targetPoint" />
          </mxGeometry>
        </mxCell>
        <mxCell id="5G4IDF_U-Jctl3EP4ENw-86" value="Creer un compte" style="html=1;overflow=block;blockSpacing=1;whiteSpace=wrap;ellipse;fontSize=13;spacing=3.8;strokeColor=#5e5e5e;strokeOpacity=100;rounded=1;absoluteArcSize=1;arcSize=9;strokeWidth=2.3;lucidId=KpitLF8Kvkj4;" vertex="1" parent="1">
          <mxGeometry x="460" y="59" width="165" height="90" as="geometry" />
        </mxCell>
        <mxCell id="5G4IDF_U-Jctl3EP4ENw-87" value="Utilisateur" style="html=1;overflow=block;blockSpacing=1;shape=umlActor;labelPosition=center;verticalLabelPosition=bottom;verticalAlign=top;whiteSpace=nowrap;fontSize=16.7;fontColor=#333333;align=center;spacing=0;strokeColor=#5e5e5e;strokeOpacity=100;rounded=1;absoluteArcSize=1;arcSize=9;strokeWidth=2.3;lucidId=8mitzC-ZQj-q;" vertex="1" parent="1">
          <mxGeometry x="70" y="59" width="60" height="135" as="geometry" />
        </mxCell>
        <mxCell id="5G4IDF_U-Jctl3EP4ENw-90" style="edgeStyle=orthogonalEdgeStyle;rounded=0;orthogonalLoop=1;jettySize=auto;html=1;exitX=0.5;exitY=0;exitDx=0;exitDy=0;" edge="1" parent="1">
          <mxGeometry relative="1" as="geometry">
            <mxPoint x="980.333333333333" y="3880" as="targetPoint" />
            <mxPoint x="980" y="3909" as="sourcePoint" />
          </mxGeometry>
        </mxCell>
        <mxCell id="5G4IDF_U-Jctl3EP4ENw-89" value="Admin" style="html=1;overflow=block;blockSpacing=1;shape=umlActor;labelPosition=center;verticalLabelPosition=bottom;verticalAlign=top;whiteSpace=nowrap;fontSize=16.7;fontColor=#333333;align=center;spacing=0;strokeColor=#5e5e5e;strokeOpacity=100;rounded=1;absoluteArcSize=1;arcSize=9;strokeWidth=2.3;lucidId=TCmtfz8hAuSR;" vertex="1" parent="1">
          <mxGeometry x="40" y="2894" width="60" height="135" as="geometry" />
        </mxCell>
        <mxCell id="5G4IDF_U-Jctl3EP4ENw-103" style="edgeStyle=orthogonalEdgeStyle;rounded=0;orthogonalLoop=1;jettySize=auto;html=1;exitX=1;exitY=0;exitDx=0;exitDy=0;entryX=0.5;entryY=1;entryDx=0;entryDy=0;" edge="1" parent="1" source="5G4IDF_U-Jctl3EP4ENw-96" target="5G4IDF_U-Jctl3EP4ENw-13">
          <mxGeometry relative="1" as="geometry" />
        </mxCell>
        <mxCell id="5G4IDF_U-Jctl3EP4ENw-96" value="Inviter des amis" style="html=1;overflow=block;blockSpacing=1;whiteSpace=wrap;ellipse;fontSize=13;spacing=3.8;strokeColor=#5e5e5e;strokeOpacity=100;rounded=1;absoluteArcSize=1;arcSize=9;strokeWidth=2.3;lucidId=1GmtvfArZXu1;" vertex="1" parent="1">
          <mxGeometry x="387" y="2600" width="210" height="75" as="geometry" />
        </mxCell>
        <mxCell id="5G4IDF_U-Jctl3EP4ENw-104" style="edgeStyle=orthogonalEdgeStyle;rounded=0;orthogonalLoop=1;jettySize=auto;html=1;exitX=0.5;exitY=0;exitDx=0;exitDy=0;" edge="1" parent="1" source="5G4IDF_U-Jctl3EP4ENw-97">
          <mxGeometry relative="1" as="geometry">
            <mxPoint x="630" y="2550" as="targetPoint" />
          </mxGeometry>
        </mxCell>
        <mxCell id="5G4IDF_U-Jctl3EP4ENw-97" value="Qr code" style="html=1;overflow=block;blockSpacing=1;whiteSpace=wrap;ellipse;fontSize=13;spacing=3.8;strokeColor=#5e5e5e;strokeOpacity=100;rounded=1;absoluteArcSize=1;arcSize=9;strokeWidth=2.3;lucidId=1GmtvfArZXu1;" vertex="1" parent="1">
          <mxGeometry x="625" y="2580" width="147" height="75" as="geometry" />
        </mxCell>
        <mxCell id="5G4IDF_U-Jctl3EP4ENw-106" style="edgeStyle=orthogonalEdgeStyle;rounded=0;orthogonalLoop=1;jettySize=auto;html=1;exitX=0.5;exitY=0;exitDx=0;exitDy=0;entryX=0.614;entryY=1.013;entryDx=0;entryDy=0;entryPerimeter=0;" edge="1" parent="1" source="5G4IDF_U-Jctl3EP4ENw-98" target="5G4IDF_U-Jctl3EP4ENw-97">
          <mxGeometry relative="1" as="geometry" />
        </mxCell>
        <mxCell id="5G4IDF_U-Jctl3EP4ENw-98" value="Telechargement QR code" style="html=1;overflow=block;blockSpacing=1;whiteSpace=wrap;ellipse;fontSize=13;spacing=3.8;strokeColor=#5e5e5e;strokeOpacity=100;rounded=1;absoluteArcSize=1;arcSize=9;strokeWidth=2.3;lucidId=1GmtvfArZXu1;" vertex="1" parent="1">
          <mxGeometry x="617" y="2690" width="210" height="75" as="geometry" />
        </mxCell>
        <mxCell id="5G4IDF_U-Jctl3EP4ENw-105" style="edgeStyle=orthogonalEdgeStyle;rounded=0;orthogonalLoop=1;jettySize=auto;html=1;exitX=1;exitY=0;exitDx=0;exitDy=0;entryX=0;entryY=1;entryDx=0;entryDy=0;" edge="1" parent="1" source="5G4IDF_U-Jctl3EP4ENw-99" target="5G4IDF_U-Jctl3EP4ENw-13">
          <mxGeometry relative="1" as="geometry" />
        </mxCell>
        <mxCell id="5G4IDF_U-Jctl3EP4ENw-99" value="Remboursement ticket" style="html=1;overflow=block;blockSpacing=1;whiteSpace=wrap;ellipse;fontSize=13;spacing=3.8;strokeColor=#5e5e5e;strokeOpacity=100;rounded=1;absoluteArcSize=1;arcSize=9;strokeWidth=2.3;lucidId=1GmtvfArZXu1;" vertex="1" parent="1">
          <mxGeometry x="147" y="2570" width="210" height="75" as="geometry" />
        </mxCell>
      </root>
    </mxGraphModel>
  </diagram>
</mxfile>
